<svg width="25" height="12" viewBox="0 0 25 12" fill="none" xmlns="http://www.w3.org/2000/svg">
<path opacity="0.35" d="M0.513811 2.74032C0.513811 1.51065 1.51065 0.513811 2.74032 0.513811H19.8673C21.097 0.513811 22.0939 1.51065 22.0939 2.74032V8.90605C22.0939 10.1357 21.097 11.1326 19.8673 11.1326H2.74032C1.51065 11.1326 0.513811 10.1357 0.513811 8.90605V2.74032Z" stroke="white"/>
<path opacity="0.4" d="M23.6353 3.76796V7.87845C24.4622 7.53032 25 6.72046 25 5.82321C25 4.92596 24.4622 4.1161 23.6353 3.76796Z" fill="white"/>
<path d="M2.05524 3.4254C2.05524 2.66869 2.66868 2.05524 3.4254 2.05524H19.1823C19.939 2.05524 20.5524 2.66868 20.5524 3.4254V8.22097C20.5524 8.97769 19.939 9.59113 19.1823 9.59113H3.4254C2.66868 9.59113 2.05524 8.97769 2.05524 8.22097V3.4254Z" fill="white"/>
</svg>
