<svg width="22" height="17" viewBox="0 0 22 17" fill="none" xmlns="http://www.w3.org/2000/svg">
<g clip-path="url(#clip0_0_161)">
<path d="M18.3029 1.36286C20.6852 4.8656 21.8618 8.8166 21.422 13.3651C21.4201 13.3844 21.4101 13.402 21.3943 13.4136C19.5902 14.7384 17.8422 15.5423 16.1188 16.0755C16.1054 16.0796 16.091 16.0793 16.0777 16.0748C16.0644 16.0704 16.0529 16.0618 16.0447 16.0504C15.6465 15.4964 15.2848 14.9124 14.9678 14.2991C14.9496 14.2629 14.9662 14.2194 15.0037 14.2052C15.5783 13.9887 16.1246 13.7293 16.6501 13.4221C16.6915 13.3978 16.6941 13.3385 16.6559 13.31C16.5444 13.2272 16.4339 13.1402 16.3282 13.0532C16.3084 13.0371 16.2818 13.0339 16.2593 13.0447C12.8476 14.6202 9.11014 14.6202 5.65803 13.0447C5.63561 13.0347 5.60898 13.0381 5.58973 13.054C5.48426 13.141 5.37351 13.2272 5.26303 13.31C5.2248 13.3385 5.22796 13.3978 5.26962 13.4221C5.79514 13.7235 6.34149 13.9887 6.91526 14.2063C6.95244 14.2205 6.97011 14.2629 6.95165 14.2991C6.64156 14.9132 6.27979 15.4972 5.87425 16.0512C5.85658 16.0736 5.82757 16.0839 5.80015 16.0755C4.0849 15.5423 2.33696 14.7384 0.532851 13.4136C0.517821 13.402 0.50701 13.3836 0.505428 13.3643C0.137856 9.42993 0.886975 5.44623 3.62162 1.36207C3.62821 1.35126 3.63823 1.34282 3.64983 1.33781C4.9954 0.720268 6.43694 0.265945 7.94362 0.00648265C7.97104 0.00226375 7.99846 0.0149205 8.0127 0.0391791C8.19886 0.368781 8.41165 0.791462 8.55562 1.13688C10.1438 0.894298 11.7567 0.894298 13.3781 1.13688C13.5221 0.798845 13.7275 0.368781 13.9128 0.0391791C13.9194 0.0271447 13.9297 0.0175033 13.9421 0.0116315C13.9545 0.00575969 13.9684 0.00395765 13.9819 0.00648265C15.4894 0.266736 16.9309 0.721059 18.2754 1.33781C18.2873 1.34282 18.2971 1.35126 18.3029 1.36286V1.36286ZM9.36302 8.8435C9.37963 7.6804 8.53163 6.71797 7.46715 6.71797C6.41136 6.71797 5.57154 7.67196 5.57154 8.8435C5.57154 10.0148 6.42798 10.9688 7.46715 10.9688C8.52319 10.9688 9.36302 10.0148 9.36302 8.8435V8.8435ZM16.3722 8.8435C16.3888 7.6804 15.5408 6.71797 14.4766 6.71797C13.4205 6.71797 12.5807 7.67196 12.5807 8.8435C12.5807 10.0148 13.4372 10.9688 14.4766 10.9688C15.5408 10.9688 16.3722 10.0148 16.3722 8.8435V8.8435Z" fill="white"/>
</g>
<defs>
<clipPath id="clip0_0_161">
<rect width="22" height="16.0864" fill="white"/>
</clipPath>
</defs>
</svg>
