<svg width="30" height="30" viewBox="0 0 30 30" fill="none" xmlns="http://www.w3.org/2000/svg">
<path d="M9.98357 26.0047C10.9359 26.4857 11.9395 26.8479 12.972 27.0858C13.9524 27.3117 14.9588 27.4256 15.9719 27.423C18.459 27.422 20.8967 26.7287 23.012 25.4205C25.1273 24.1124 26.8366 22.2411 27.9485 20.0164C28.8862 18.1599 29.3722 16.108 29.3668 14.0281V13.2402C29.1856 9.95551 27.7992 6.8531 25.473 4.52696C23.1469 2.20082 20.0445 0.81442 16.7598 0.633208H15.9719C13.8919 0.627785 11.8401 1.11374 9.98357 2.05149C7.75884 3.16337 5.88761 4.87269 4.57947 6.98798C3.27133 9.10328 2.57794 11.541 2.57698 14.0281C2.57156 16.108 3.05751 18.1599 3.99527 20.0164L1.00111 28.9989L5.72872 27.423" stroke="#3C3941" stroke-width="1.25" stroke-linecap="square"/>
</svg>
