<svg width="22" height="17" viewBox="0 0 22 17" fill="none" xmlns="http://www.w3.org/2000/svg">
<path d="M18.6523 1.41576C21.1369 5.06885 22.364 9.18944 21.9053 13.9332C21.9034 13.9533 21.8929 13.9717 21.8764 13.9838C19.9949 15.3654 18.1719 16.2039 16.3745 16.7599C16.3605 16.7642 16.3455 16.7639 16.3317 16.7592C16.3178 16.7545 16.3058 16.7456 16.2972 16.7338C15.882 16.156 15.5047 15.5469 15.1741 14.9072C15.1551 14.8696 15.1725 14.8242 15.2115 14.8093C15.8107 14.5836 16.3805 14.313 16.9286 13.9926C16.9718 13.9673 16.9745 13.9054 16.9347 13.8757C16.8183 13.7894 16.7031 13.6986 16.5928 13.6079C16.5722 13.5911 16.5444 13.5878 16.5211 13.5991C12.9628 15.2422 9.065 15.2422 5.46471 13.5991C5.44133 13.5886 5.41356 13.5922 5.39348 13.6087C5.28348 13.6994 5.16798 13.7894 5.05276 13.8757C5.01288 13.9054 5.01618 13.9673 5.05963 13.9926C5.60771 14.3069 6.17751 14.5836 6.77591 14.8104C6.81468 14.8253 6.83311 14.8696 6.81386 14.9072C6.49046 15.5477 6.11316 16.1568 5.69021 16.7346C5.67178 16.758 5.64153 16.7687 5.61293 16.7599C3.82406 16.2039 2.00109 15.3654 0.119543 13.9838C0.103868 13.9717 0.0925931 13.9524 0.0909431 13.9324C-0.292406 9.82909 0.488867 5.6744 3.34089 1.41493C3.34776 1.40366 3.35821 1.39486 3.37031 1.38963C4.77363 0.745583 6.27706 0.271759 7.8484 0.00115927C7.877 -0.00324073 7.9056 0.00995925 7.92045 0.0352592C8.1146 0.379009 8.33653 0.819833 8.48668 1.18008C10.143 0.927083 11.8252 0.927083 13.5161 1.18008C13.6663 0.827533 13.8805 0.379009 14.0738 0.0352592C14.0807 0.0227082 14.0914 0.012653 14.1043 0.00652911C14.1173 0.000405272 14.1318 -0.00147412 14.1459 0.00115927C15.7181 0.272584 17.2215 0.746408 18.6237 1.38963C18.6361 1.39486 18.6463 1.40366 18.6523 1.41576ZM9.32873 9.21749C9.34605 8.00447 8.46165 7.00072 7.35148 7.00072C6.25038 7.00072 5.37451 7.99567 5.37451 9.21749C5.37451 10.439 6.26771 11.434 7.35148 11.434C8.45285 11.434 9.32873 10.439 9.32873 9.21749ZM16.6388 9.21749C16.6561 8.00447 15.7717 7.00072 14.6618 7.00072C13.5604 7.00072 12.6845 7.99567 12.6845 9.21749C12.6845 10.439 13.5777 11.434 14.6618 11.434C15.7717 11.434 16.6388 10.439 16.6388 9.21749Z" fill="white"/>
</svg>
