<svg width="17" height="17" viewBox="0 0 17 17" fill="none" xmlns="http://www.w3.org/2000/svg">
<path d="M15.8575 1.14245L16.4775 1.3776L17 -1.04572e-05L15.6224 0.522531L15.8575 1.14245ZM4.98075 5.26813L4.7456 4.64821L4.46664 4.75402L4.36082 5.03299L4.98075 5.26813ZM0.619926 15.525L2.64152e-06 15.7601L0.470289 17L1.09021 16.7648L0.619926 15.525ZM11.7319 12.0192L11.967 12.6392L12.246 12.5334L12.3518 12.2544L11.7319 12.0192ZM15.6224 0.522531L4.7456 4.64821L5.21589 5.88806L16.0927 1.76238L15.6224 0.522531ZM1.09021 16.7648L11.967 12.6392L11.4967 11.3993L0.619926 15.525L1.09021 16.7648ZM12.3518 12.2544L16.4775 1.3776L15.2376 0.907311L11.1119 11.7841L12.3518 12.2544ZM4.36082 5.03299L1.26656 13.1906L2.50641 13.6609L5.60067 5.50328L4.36082 5.03299Z" fill="#3C3941"/>
</svg>
